<?xml version="1.0" encoding="UTF-8"?>
<svg version="1.1" xmlns="http://www.w3.org/2000/svg" width="273" height="365">
<path d="M0 0 C0.69220642 -0.01053406 1.38441284 -0.02106812 2.09759521 -0.03192139 C28.32970994 -0.34016912 53.74598556 10.31072221 73.4375 27.5 C73.4375 28.16 73.4375 28.82 73.4375 29.5 C74.29794922 29.86351562 74.29794922 29.86351562 75.17578125 30.234375 C89.94179785 38.49722367 100.53270995 62.8492555 105.26232052 78.02405548 C109.58110839 93.47412486 109.88337203 109.79416121 109.84155273 125.72070312 C109.84727594 127.73389561 109.85424759 129.74708486 109.86235046 131.76026917 C109.88006062 137.14974134 109.87915858 142.53904884 109.87340808 147.92854118 C109.87029048 152.44493264 109.87643542 156.96129361 109.88244683 161.47768068 C109.89641104 172.12365611 109.89499263 182.7695511 109.88354492 193.41552734 C109.87201022 204.3847576 109.88624718 215.35374487 109.9129414 226.32294321 C109.93507829 235.77479979 109.94174212 245.22657993 109.93586498 254.6784606 C109.93249683 260.30999698 109.93490415 265.94137679 109.95211601 271.57289124 C109.96755595 276.85255755 109.96366249 282.13186056 109.94481087 287.41151237 C109.94112002 289.34730395 109.94424786 291.28312234 109.95469666 293.21888924 C109.96787105 295.8609872 109.9563921 298.50187514 109.93870544 301.1439209 C109.94831045 301.90908162 109.95791546 302.67424233 109.96781152 303.46258974 C109.89694083 308.60749539 108.73534547 311.5675227 105.4375 315.5 C100.62778905 318.19745334 96.68724234 318.8832392 91.21875 318.8984375 C90.55717896 318.90130768 89.89560791 318.90417786 89.21398926 318.90713501 C87.82575618 318.90916172 86.43749363 318.90373013 85.04931641 318.89111328 C82.94237512 318.8750372 80.83735144 318.89100723 78.73046875 318.91015625 C77.37239166 318.90817357 76.01431575 318.90432937 74.65625 318.8984375 C73.43873047 318.89505371 72.22121094 318.89166992 70.96679688 318.88818359 C66.07659488 318.3503155 61.9458934 317.36639422 58.75888824 313.42298794 C57.02092974 309.57852227 57.02333746 306.08233812 57.05895996 301.94459534 C57.05442983 301.08448803 57.0498997 300.22438073 57.0452323 299.33820957 C57.03360677 296.45652023 57.04325625 293.57529493 57.05273438 290.69360352 C57.04862911 288.62693482 57.0431685 286.56026843 57.03645325 284.49360657 C57.02472142 280.0416099 57.02224656 275.58973723 57.02680969 271.13772774 C57.03361924 264.08898219 57.01774917 257.0403996 56.99841309 249.99168396 C56.96053174 235.01529812 56.94776629 220.03892638 56.9375 205.0625 C56.92642077 188.92458243 56.91095092 172.78674001 56.86678743 156.64887375 C56.84849301 149.65213322 56.84451729 142.65557893 56.85172272 135.65882027 C56.85325245 131.28889013 56.84241039 126.91905174 56.82834435 122.54914665 C56.82436588 120.53449221 56.825425 118.51981998 56.83211708 116.50517273 C56.89111183 97.25332659 54.98448376 79.15571981 41.125 64.5 C25.70051866 50.42714847 10.36754218 47.69442713 -9.75146484 48.32519531 C-18.93239742 48.89611313 -25.83850207 52.90512917 -33.28515625 58.01171875 C-35.5625 59.5 -35.5625 59.5 -38.5625 60.5 C-38.5625 61.16 -38.5625 61.82 -38.5625 62.5 C-39.72592621 63.66342621 -40.89200422 64.82430496 -42.0703125 65.97265625 C-57.33616441 81.59817483 -58.01821026 102.88805509 -57.91552734 123.40087891 C-57.91635988 125.46391904 -57.91858141 127.526959 -57.92207336 129.58999634 C-57.92699078 134.00146864 -57.92299129 138.41280721 -57.91205978 142.82426834 C-57.89560704 149.79992338 -57.90420526 156.77541331 -57.91690063 163.75106812 C-57.94692545 182.3199479 -57.94550431 200.88879597 -57.92664778 219.45768774 C-57.91432587 231.68609261 -57.91613139 243.91430893 -57.94503558 256.14269197 C-57.96027946 263.07850852 -57.95277547 270.01381291 -57.92832541 276.9495976 C-57.91827374 281.25467288 -57.92892276 285.55951156 -57.94544029 289.86455917 C-57.94889857 291.86204684 -57.94376676 293.85957037 -57.92947197 295.85700989 C-57.9111804 298.58103861 -57.923486 301.30327457 -57.94345093 304.0272522 C-57.9243715 305.21570691 -57.9243715 305.21570691 -57.90490663 306.4281708 C-57.96926933 310.49490481 -58.38404153 312.28050046 -60.9848423 315.47942162 C-66.78949595 320.02958268 -74.19321732 318.68608126 -81.26147461 318.68530273 C-83.48896392 318.68748917 -85.71595758 318.70566428 -87.94335938 318.72460938 C-89.36718582 318.72754378 -90.7910146 318.72952826 -92.21484375 318.73046875 C-94.14831665 318.73663208 -94.14831665 318.73663208 -96.12084961 318.74291992 C-100.90576671 318.40518902 -103.54778549 317.59927405 -106.8125 314.0625 C-109.91794388 309.51524288 -109.6982185 305.40348802 -109.67170715 300.09812927 C-109.67130029 299.23030243 -109.67089342 298.36247558 -109.67047423 297.46835095 C-109.66776822 294.54845137 -109.65774926 291.62862314 -109.64770508 288.70874023 C-109.64411006 286.61930401 -109.64090491 284.52986707 -109.63806152 282.44042969 C-109.62867105 276.75154199 -109.61232844 271.06269578 -109.59369111 265.37383151 C-109.58205198 261.8149329 -109.57138468 258.25603253 -109.56094933 254.6971302 C-109.52767993 243.54956583 -109.48961562 232.40203072 -109.44558412 221.25450367 C-109.3950021 208.41248552 -109.36066875 195.57055975 -109.34040338 182.72845882 C-109.32366303 172.79012882 -109.29170784 162.85191733 -109.24855727 152.91366726 C-109.22317629 146.98527107 -109.20414354 141.05702203 -109.20118141 135.12856865 C-109.19800269 129.53800187 -109.17576895 123.9478162 -109.13962555 118.35736847 C-109.1296066 116.31861361 -109.12614228 114.2798129 -109.13015556 112.24103737 C-109.15590895 96.03942267 -107.51461917 80.591988 -100.8125 65.625 C-100.46888428 64.83673828 -100.12526855 64.04847656 -99.77124023 63.23632812 C-90.97606427 43.67101753 -76.35844465 28.09759985 -58.5625 16.5 C-57.7271875 15.94183594 -56.891875 15.38367187 -56.03125 14.80859375 C-48.97845256 10.30655805 -41.43647592 7.22283141 -33.5625 4.5 C-32.38042969 4.08234375 -31.19835937 3.6646875 -29.98046875 3.234375 C-20.0924011 0.34229342 -10.23206533 0.07882947 0 0 Z " fill="#A31245" transform="translate(136.5625,22.5)"/>
<path d="M0 0 C0.66 0.33 1.32 0.66 2 1 C-3.94 6.94 -9.88 12.88 -16 19 C-16.66 18.67 -17.32 18.34 -18 18 C-6.66287016 5.33029613 -6.66287016 5.33029613 0 0 Z " fill="#C76F8D" transform="translate(69,45)"/>
</svg>
