<svg version="1.1" id="Layer_1" xmlns="http://www.w3.org/2000/svg" xmlns:xlink="http://www.w3.org/1999/xlink" x="0px" y="0px"
	 width="100%" viewBox="0 0 273 365" enable-background="new 0 0 273 365" xml:space="preserve">
<path fill="#000000" opacity="1.000000" stroke="none" 
	d="
M139.000000,366.000000 
	C92.666679,366.000000 46.833366,366.000000 1.000037,366.000000 
	C1.000025,244.333389 1.000025,122.666786 1.000012,1.000135 
	C91.999908,1.000090 182.999817,1.000090 273.999817,1.000045 
	C273.999878,122.666534 273.999878,244.333069 273.999939,365.999817 
	C229.166672,366.000000 184.333328,366.000000 139.000000,366.000000 
M245.999588,126.989006 
	C245.253891,120.443092 245.393799,113.643372 243.603516,107.396835 
	C237.128311,84.803680 226.112854,65.079910 207.502960,49.741165 
	C187.443726,33.207836 164.733292,24.863525 138.991470,23.980099 
	C125.008736,23.500227 111.665512,26.348232 98.492706,30.879292 
	C81.368248,36.769615 67.349136,47.419685 55.564659,60.468616 
	C48.402554,68.399208 43.262444,78.441368 38.470100,88.154694 
	C32.405796,100.446098 29.121323,113.885941 29.070251,127.594543 
	C28.818165,195.259430 28.966265,262.925812 28.982630,330.591675 
	C28.983997,336.251465 32.091930,339.851593 38.335304,341.825867 
	C47.747829,341.883911 57.160419,341.974884 66.572800,341.957855 
	C67.738876,341.955750 68.903908,341.379425 70.814438,341.053925 
	C77.000694,339.156464 79.001732,336.575256 79.001717,330.464539 
	C79.001564,265.372131 78.982140,200.279724 79.041397,135.187378 
	C79.044983,131.247513 79.558395,127.294846 80.026505,123.371033 
	C81.829536,108.257729 87.531616,95.035759 99.250443,84.893288 
	C116.066246,70.339439 135.321442,67.024506 156.152695,73.723579 
	C176.912979,80.399826 194.999832,102.185219 195.048615,126.022507 
	C195.031845,161.313828 194.992767,196.605148 195.004745,231.896469 
	C195.016220,265.685791 195.080734,299.475128 195.314377,333.878387 
	C197.882050,337.178802 199.868652,341.254425 205.425339,341.889557 
	C213.143723,341.926361 220.862839,342.035675 228.580063,341.958008 
	C231.060913,341.933075 233.536804,341.415009 236.802826,341.096069 
	C242.371185,341.353607 244.148376,337.212280 246.783142,332.719025 
	C246.853500,332.226990 246.985428,331.734955 246.985504,331.242920 
	C246.996628,264.615112 247.003189,197.987305 246.958633,131.359528 
	C246.957840,130.184647 246.337067,129.010208 245.999588,126.989006 
z"/>
<path fill="#A10E42" opacity="1.000000" stroke="none" 
	d="
M37.913483,341.052124 
	C32.091930,339.851593 28.983997,336.251465 28.982630,330.591675 
	C28.966265,262.925812 28.818165,195.259430 29.070251,127.594543 
	C29.121323,113.885941 32.405796,100.446098 38.470100,88.154694 
	C43.262444,78.441368 48.402554,68.399208 55.564659,60.468616 
	C67.349136,47.419685 81.368248,36.769615 98.492706,30.879292 
	C111.665512,26.348232 125.008736,23.500227 138.991470,23.980099 
	C164.733292,24.863525 187.443726,33.207836 207.502960,49.741165 
	C226.112854,65.079910 237.128311,84.803680 243.603516,107.396835 
	C245.393799,113.643372 245.253891,120.443092 245.654053,127.611526 
	C245.486877,130.658051 245.819824,133.081985 245.820984,135.506088 
	C245.851288,199.054306 245.845551,262.602539 245.855652,326.150787 
	C245.856018,328.488617 245.953674,330.826447 246.005981,333.164276 
	C244.148376,337.212280 242.371185,341.353607 235.940887,341.055908 
	C225.052002,341.056305 215.025040,341.096863 204.998077,341.137390 
	C199.868652,341.254425 197.882050,337.178802 195.571167,333.294983 
	C195.892441,332.385376 196.013397,332.059174 196.013397,331.733002 
	C196.012115,264.267639 196.007370,196.802292 195.957977,129.336960 
	C195.956940,127.924957 195.436722,126.513344 195.158722,125.101547 
	C194.999832,102.185219 176.912979,80.399826 156.152695,73.723579 
	C135.321442,67.024506 116.066246,70.339439 99.250443,84.893288 
	C87.531616,95.035759 81.829536,108.257729 80.026505,123.371033 
	C79.558395,127.294846 79.044983,131.247513 79.041397,135.187378 
	C78.982140,200.279724 79.001564,265.372131 79.001717,330.464539 
	C79.001732,336.575256 77.000694,339.156464 69.970390,341.019653 
	C58.722057,341.007629 48.317768,341.029877 37.913483,341.052124 
z"/>
<path fill="#E1B2C3" opacity="1.000000" stroke="none" 
	d="
M195.103668,125.562027 
	C195.436722,126.513344 195.956940,127.924957 195.957977,129.336960 
	C196.007370,196.802292 196.012115,264.267639 196.013397,331.733002 
	C196.013397,332.059174 195.892441,332.385376 195.474945,332.987976 
	C195.080734,299.475128 195.016220,265.685791 195.004745,231.896469 
	C194.992767,196.605148 195.031845,161.313828 195.103668,125.562027 
z"/>
<path fill="#FFFFFF" opacity="1.000000" stroke="none" 
	d="
M246.394562,332.941650 
	C245.953674,330.826447 245.856018,328.488617 245.855652,326.150787 
	C245.845551,262.602539 245.851288,199.054306 245.820984,135.506088 
	C245.819824,133.081985 245.486877,130.658051 245.657059,128.034790 
	C246.337067,129.010208 246.957840,130.184647 246.958633,131.359528 
	C247.003189,197.987305 246.996628,264.615112 246.985504,331.242920 
	C246.985428,331.734955 246.853500,332.226990 246.394562,332.941650 
z"/>
<path fill="#FFFFFF" opacity="1.000000" stroke="none" 
	d="
M38.124393,341.438995 
	C48.317768,341.029877 58.722057,341.007629 69.597885,341.027283 
	C68.903908,341.379425 67.738876,341.955750 66.572800,341.957855 
	C57.160419,341.974884 47.747829,341.883911 38.124393,341.438995 
z"/>
<path fill="#FFFFFF" opacity="1.000000" stroke="none" 
	d="
M205.211700,341.513489 
	C215.025040,341.096863 225.052002,341.056305 235.546967,341.069153 
	C233.536804,341.415009 231.060913,341.933075 228.580063,341.958008 
	C220.862839,342.035675 213.143723,341.926361 205.211700,341.513489 
z"/>
</svg>